<svg width="118" height="118" viewBox="0 0 118 118" fill="none" xmlns="http://www.w3.org/2000/svg">
<path d="M12.4388 70.7705C11.3933 77.4232 16.0677 82.0405 21.7909 84.3415C43.7328 93.1639 74.2673 93.1639 96.2089 84.3415C101.932 82.0405 106.607 77.4232 105.561 70.7705C104.919 66.6823 101.742 63.278 99.3875 59.9538C96.3043 55.546 95.998 50.7385 95.9975 45.6237C95.9975 25.8572 79.4332 9.83331 59 9.83331C38.567 9.83331 22.0027 25.8572 22.0027 45.6237C22.0023 50.7385 21.6959 55.546 18.6126 59.9538C16.2587 63.278 13.0814 66.6823 12.4388 70.7705Z" stroke="#163300" stroke-width="8.5" stroke-linecap="round" stroke-linejoin="round"/>
<path d="M44.25 103.25C48.1643 106.308 53.3335 108.167 59 108.167C64.6665 108.167 69.8358 106.308 73.75 103.25" stroke="#163300" stroke-width="8.5" stroke-linecap="round" stroke-linejoin="round"/>
</svg>
