<svg width="100" height="100" viewBox="0 0 100 100" fill="none" xmlns="http://www.w3.org/2000/svg">
<path d="M29.2924 0.349692C23.9723 0.600694 20.3393 1.4497 17.1633 2.69772C13.8762 3.97873 11.0902 5.69775 8.31816 8.47977C5.54614 11.2618 3.83912 14.0498 2.56711 17.3419C1.33609 20.5249 0.502086 24.1609 0.267084 29.484C0.0320814 34.807 -0.0199191 36.5181 0.00608114 50.0962C0.0320814 63.6743 0.092082 65.3764 0.350085 70.7104C0.604087 76.0295 1.4501 79.6615 2.69811 82.8385C3.98112 86.1256 5.69814 88.9106 8.48117 91.6836C11.2642 94.4566 14.0502 96.1597 17.3503 97.4337C20.5303 98.6627 24.1673 99.5007 29.4894 99.7337C34.8114 99.9667 36.5244 100.021 50.0986 99.9947C63.6727 99.9687 65.3817 99.9087 70.7148 99.6557C76.0478 99.4027 79.6609 98.5507 82.8389 97.3087C86.1259 96.0227 88.913 94.3086 91.684 91.5246C94.455 88.7406 96.161 85.9506 97.4321 82.6565C98.6641 79.4765 99.5011 75.8395 99.7321 70.5214C99.9651 65.1843 100.02 63.4803 99.9941 49.9042C99.9681 36.3281 99.9071 34.626 99.6541 29.294C99.4011 23.9619 98.5541 20.3409 97.3071 17.1619C96.022 13.8748 94.307 11.0918 91.525 8.31677C88.743 5.54174 85.9509 3.83673 82.6579 2.56871C79.4759 1.3377 75.8408 0.498693 70.5188 0.268691C65.1967 0.0386885 63.4837 -0.0203121 49.9046 0.00568812C36.3254 0.0316884 34.6254 0.0896889 29.2924 0.349692ZM29.8764 90.7386C25.0013 90.5266 22.3543 89.7166 20.5903 89.0386C18.2543 88.1386 16.5902 87.0506 14.8322 85.3096C13.0742 83.5685 11.9942 81.8985 11.0822 79.5675C10.3972 77.8035 9.57218 75.1595 9.34418 70.2844C9.09617 65.0154 9.04417 63.4333 9.01517 50.0842C8.98617 36.7351 9.03717 35.155 9.26817 29.884C9.47618 25.0129 10.2912 22.3629 10.9682 20.5999C11.8682 18.2609 12.9522 16.5999 14.6972 14.8428C16.4422 13.0858 18.1073 12.0038 20.4403 11.0918C22.2023 10.4038 24.8463 9.58578 29.7194 9.35378C34.9924 9.10378 36.5724 9.05378 49.9196 9.02478C63.2667 8.99578 64.8507 9.04578 70.1258 9.27778C74.9968 9.48978 77.6479 10.2968 79.4089 10.9778C81.7459 11.8778 83.4089 12.9588 85.1659 14.7068C86.923 16.4549 88.006 18.1139 88.918 20.4519C89.607 22.2089 90.425 24.8519 90.655 29.728C90.906 35.001 90.963 36.5821 90.987 49.9282C91.011 63.2743 90.964 64.8593 90.733 70.1284C90.52 75.0034 89.712 77.6515 89.033 79.4175C88.133 81.7525 87.048 83.4175 85.3019 85.1735C83.5559 86.9296 81.8929 88.0116 79.5589 88.9236C77.7989 89.6106 75.1518 90.4306 70.2828 90.6626C65.0097 90.9106 63.4297 90.9626 50.0776 90.9916C36.7254 91.0206 35.1504 90.9666 29.8774 90.7386M70.6378 23.2769C70.6398 24.4637 70.9937 25.6232 71.6547 26.6089C72.3157 27.5945 73.2542 28.362 74.3514 28.8143C75.4487 29.2665 76.6554 29.3832 77.8189 29.1496C78.9825 28.916 80.0507 28.3425 80.8883 27.5018C81.7259 26.6611 82.2954 25.5908 82.5248 24.4264C82.7541 23.262 82.633 22.0557 82.1768 20.9602C81.7205 19.8646 80.9496 18.9289 79.9615 18.2715C78.9735 17.6141 77.8126 17.2645 76.6259 17.2669C75.0349 17.27 73.5103 17.905 72.3874 19.032C71.2645 20.1591 70.6351 21.686 70.6378 23.2769ZM24.3273 50.0502C24.3553 64.2303 35.8714 75.6994 50.0486 75.6724C64.2257 75.6454 75.7028 64.1303 75.6758 49.9502C75.6488 35.7701 64.1297 24.2979 49.9506 24.3259C35.7714 24.3539 24.3003 35.8721 24.3273 50.0502ZM33.3334 50.0322C33.3269 46.7357 34.298 43.5114 36.124 40.7669C37.95 38.0224 40.5488 35.8809 43.5918 34.6134C46.6349 33.3459 49.9854 33.0092 53.2198 33.6459C56.4542 34.2826 59.4271 35.8641 61.7627 38.1904C64.0982 40.5168 65.6915 43.4834 66.341 46.7153C66.9905 49.9471 66.6671 53.2989 65.4116 56.347C64.1561 59.395 62.025 62.0023 59.2878 63.8391C56.5505 65.6759 53.33 66.6598 50.0336 66.6664C47.8447 66.671 45.6764 66.2443 43.6525 65.4108C41.6286 64.5773 39.7887 63.3533 38.2379 61.8086C36.687 60.2639 35.4557 58.4289 34.6142 56.4082C33.7727 54.3876 33.3375 52.221 33.3334 50.0322Z" fill="white"/>
</svg>
